<svg width="220" height="566" viewBox="0 0 220 566" fill="none" xmlns="http://www.w3.org/2000/svg">
<path d="M219.5 283C219.5 361.102 207.194 431.788 187.316 482.93C177.376 508.503 165.552 529.163 152.449 543.422C139.346 557.681 125.001 565.5 110 565.5C94.9995 565.5 80.6544 557.681 67.5512 543.422C54.4476 529.163 42.6241 508.503 32.6843 482.93C12.8058 431.788 0.5 361.102 0.5 283C0.5 204.898 12.8058 134.212 32.6843 83.0699C42.6241 57.4974 54.4476 36.8368 67.5512 22.5779C80.6544 8.31935 94.9995 0.5 110 0.5C125.001 0.5 139.346 8.31935 152.449 22.5779C165.552 36.8368 177.376 57.4974 187.316 83.0699C207.194 134.212 219.5 204.898 219.5 283Z" fill="#F2F7F6" stroke="#01684F"/>
</svg>
