<svg width="743" height="165" viewBox="0 0 743 165" fill="none" xmlns="http://www.w3.org/2000/svg">
<path d="M1.54324 161.955L1.23002 162.658H2H40.1816H40.5153L40.6434 162.35L54.863 128.124H128.83L142.994 162.349L143.122 162.658H143.456H182.558H183.329L183.014 161.954L111.021 0.796063L110.889 0.5H110.565H73.7631H73.4384L73.3063 0.796606L1.54324 161.955ZM91.9186 38.9342L116.697 98.8065H67.0436L91.9186 38.9342ZM198.218 133.408L198.221 133.413C204.249 143.161 212.52 150.819 223.023 156.384L223.028 156.387C233.535 161.8 245.499 164.5 258.908 164.5C272.012 164.5 283.446 161.799 293.193 156.379L293.198 156.376C302.948 150.8 310.15 142.971 314.795 132.899L314.99 132.474L314.58 132.25L286.749 117.055L286.308 116.814L286.069 117.257C282.885 123.176 278.884 127.472 274.077 130.18C269.401 132.746 264.271 134.031 258.678 134.031C252.623 134.031 247.188 132.668 242.363 129.951C237.539 127.235 233.694 123.389 230.823 118.401C228.114 113.427 226.747 107.376 226.747 100.227C226.747 93.0791 228.114 87.028 230.823 82.0536C233.694 77.0659 237.539 73.2195 242.363 70.5035C247.188 67.7866 252.623 66.4237 258.678 66.4237C264.267 66.4237 269.393 67.7832 274.068 70.5001L274.074 70.5035C278.886 73.2129 282.888 77.436 286.072 83.2021L286.311 83.635L286.746 83.4008L314.578 68.4361L314.989 68.2147L314.796 67.789C310.152 57.5632 302.949 49.7318 293.196 44.3075C283.448 38.7329 272.013 35.9548 258.908 35.9548C245.498 35.9548 233.533 38.7323 223.025 44.2998C212.521 49.7118 204.25 57.2937 198.221 67.0421L198.219 67.044C192.339 76.6473 189.405 87.7139 189.405 100.227C189.405 112.589 192.34 123.654 198.218 133.408ZM371.271 162.158V162.658H371.771H407.423H407.923V162.158V68.2655H449.285H449.785V67.7655V38.2966V37.7966H449.285H329.91H329.41V38.2966V67.7655V68.2655H329.91H371.271V162.158ZM486.245 156.155L486.247 156.156C497.063 161.724 509.564 164.5 523.738 164.5C534.981 164.5 544.936 162.804 553.592 159.4L553.599 159.397C562.251 155.841 569.447 150.809 575.175 144.301L575.473 143.963L575.168 143.632L556.077 122.911L555.73 122.535L555.362 122.89C551.266 126.838 546.721 129.794 541.725 131.764L541.72 131.766C536.886 133.731 531.202 134.722 524.658 134.722C517.36 134.722 510.998 133.429 505.559 130.86C500.278 128.14 496.135 124.293 493.119 119.315C491.657 116.696 490.567 113.877 489.85 110.857H582.85H583.303L583.348 110.407C583.501 108.871 583.655 107.257 583.808 105.568L583.809 105.564C583.963 103.713 584.04 102.087 584.04 100.688C584.04 87.2646 581.188 75.7385 575.461 66.1311C569.741 56.3826 561.93 48.9491 552.032 43.8401C542.292 38.5799 531.324 35.9548 519.138 35.9548C506.489 35.9548 495.134 38.7345 485.086 44.3044C475.042 49.7186 467.08 57.3016 461.207 67.047L461.206 67.049C455.48 76.6516 452.625 87.7163 452.625 100.227C452.625 112.589 455.559 123.654 461.437 133.408L461.439 133.411C467.316 143.009 475.59 150.591 486.245 156.155ZM549.162 88.9068H489.397C490.007 85.3514 491.098 82.1462 492.665 79.2869L492.668 79.281C495.233 74.449 498.77 70.7603 503.284 68.2005L503.288 68.1978C507.957 65.4844 513.312 64.1215 519.368 64.1215C525.424 64.1215 530.699 65.4845 535.211 68.1943L535.222 68.2004C539.739 70.7626 543.277 74.3779 545.84 79.0566C547.454 82.0026 548.563 85.2846 549.162 88.9068ZM698.27 162.446L698.419 162.658H698.678H741H741.974L741.406 161.867L695.388 97.7303L738.414 38.5908L738.992 37.7966H738.01H699.828H699.567L699.418 38.0108L666.041 85.9138H647.426V38.2966V37.7966H646.926H611.044H610.544V38.2966V162.158V162.658H611.044H646.926H647.426V162.158V115.692H665.298L698.27 162.446Z" stroke="white" stroke-opacity="0.3"/>
</svg>
