<svg width="377" height="83" viewBox="0 0 377 83" fill="none" xmlns="http://www.w3.org/2000/svg">
<path d="M0.7372 80.9656L0.552289 81.3733H1H20.3233H20.5145L20.5891 81.1972L27.7758 64.2123H65.1649L72.3235 81.1968L72.3979 81.3733H72.5894H92.3783H92.8266L92.641 80.9652L56.2061 0.880503L56.1291 0.711438H55.9434H37.3185H37.1325L37.0557 0.88082L0.7372 80.9656ZM46.5068 19.9438L58.9906 49.5631H33.9742L46.5068 19.9438ZM100.274 66.8204L100.276 66.8233C103.331 71.6738 107.522 75.4835 112.843 78.2518L112.845 78.2533C118.168 80.9459 124.228 82.2886 131.019 82.2886C137.654 82.2886 143.446 80.9456 148.385 78.249L148.388 78.2474C153.328 75.4729 156.979 71.5767 159.334 66.5633L159.45 66.3156L159.209 66.1864L145.124 58.6355L144.872 58.5004L144.734 58.7512C143.126 61.687 141.105 63.8165 138.679 65.1581C136.318 66.4302 133.727 67.0674 130.902 67.0674C127.842 67.0674 125.097 66.3912 122.661 65.0441C120.225 63.6975 118.284 61.791 116.835 59.3189C115.468 56.8546 114.778 53.8555 114.778 50.3093C114.778 46.7631 115.468 43.764 116.835 41.2997C118.284 38.8276 120.225 36.9211 122.661 35.5746C125.097 34.2275 127.842 33.5513 130.902 33.5513C133.725 33.5513 136.314 34.2256 138.675 35.5727L138.678 35.5746C141.107 36.9174 143.128 39.0105 144.736 41.8702L144.873 42.1152L145.122 41.984L159.207 34.5476L159.449 34.4197L159.334 34.1712C156.98 29.0813 153.329 25.1837 148.386 22.4847C143.447 19.7114 137.655 18.3301 131.019 18.3301C124.228 18.3301 118.167 19.7111 112.844 22.4805C107.523 25.1726 103.331 28.9446 100.276 33.7954L100.275 33.7965C97.2949 38.576 95.8084 44.0834 95.8084 50.3093C95.8084 56.4597 97.2953 61.9662 100.274 66.8204ZM187.849 81.0847V81.3733H188.137H206.18H206.469V81.0847V34.4665H227.366H227.655V34.178V19.5339V19.2453H227.366H166.952H166.663V19.5339V34.178V34.4665H166.952H187.849V81.0847ZM246.057 78.1381L246.058 78.1389C251.537 80.9083 257.869 82.2886 265.046 82.2886C270.739 82.2886 275.781 81.4454 280.166 79.7523L280.17 79.7506C284.553 77.9814 288.199 75.4783 291.103 72.2392L291.279 72.0421L291.098 71.8492L281.437 61.5525L281.238 61.3412L281.028 61.5404C278.958 63.499 276.662 64.9655 274.138 65.9427L274.135 65.9439C271.693 66.9189 268.821 67.4106 265.512 67.4106C261.822 67.4106 258.607 66.7688 255.859 65.4945C253.193 64.1459 251.102 62.2392 249.579 59.7724C248.85 58.4891 248.304 57.1093 247.942 55.6318H294.962H295.223L295.249 55.3724C295.327 54.6088 295.405 53.807 295.482 52.9673L295.482 52.9651C295.561 52.0442 295.6 51.2349 295.6 50.5381C295.6 43.8611 294.155 38.1254 291.252 33.3435C288.353 28.4928 284.395 24.7942 279.381 22.2525C274.446 19.6356 268.89 18.3301 262.718 18.3301C256.312 18.3301 250.561 19.7123 245.47 22.4828C240.381 25.1761 236.347 28.9489 233.37 33.7982L233.37 33.7994C230.468 38.5785 229.021 44.0849 229.021 50.3093C229.021 56.4597 230.508 61.9662 233.487 66.8204L233.488 66.8222C236.467 71.5988 240.659 75.3705 246.057 78.1381ZM277.87 44.6436H247.71C248.019 42.9002 248.567 41.328 249.35 39.9245L249.352 39.9211C250.646 37.5267 252.432 35.6988 254.71 34.4301L254.712 34.4286C257.07 33.0835 259.774 32.4072 262.834 32.4072C265.895 32.4072 268.559 33.0835 270.836 34.4266L270.842 34.4301C273.123 35.7002 274.908 37.4917 276.202 39.8101C277.009 41.2566 277.566 42.8669 277.87 44.6436ZM353.347 81.2531L353.433 81.3733H353.581H375H375.568L375.233 80.9145L351.962 49.0686L373.719 19.7057L374.06 19.2453H373.487H354.163H354.014L353.928 19.3669L337.047 43.1563H327.679V19.5339V19.2453H327.39H309.231H308.942V19.5339V81.0847V81.3733H309.231H327.39H327.679V81.0847V58.0343H336.671L353.347 81.2531Z" stroke="white" stroke-opacity="0.3" stroke-width="0.577123"/>
</svg>
