<svg width="543" height="121" viewBox="0 0 543 121" fill="none" xmlns="http://www.w3.org/2000/svg">
<path d="M1.56929 118.464L1.27434 119.127H2H29.8483H30.163L30.2837 118.836L40.6277 93.9149H94.4338L104.737 118.835L104.858 119.127H105.173H133.692H134.419L134.123 118.463L81.6136 0.807879L81.489 0.528596H81.1831H54.3414H54.0352L53.9107 0.808392L1.56929 118.464ZM67.5832 28.973L85.4963 72.2984H49.6001L67.5832 28.973ZM145.022 97.7206L145.025 97.7252C149.433 104.858 155.48 110.462 163.156 114.534L163.161 114.536C170.841 118.497 179.585 120.471 189.38 120.471C198.952 120.471 207.31 118.496 214.438 114.529L214.443 114.526C221.573 110.444 226.841 104.712 230.238 97.3385L230.422 96.9387L230.036 96.7276L209.737 85.6344L209.321 85.4067L209.096 85.8249C206.781 90.1318 203.876 93.2518 200.391 95.2166C196.997 97.0807 193.274 98.0145 189.212 98.0145C184.812 98.0145 180.867 97.0234 177.365 95.0498C173.864 93.0769 171.073 90.2831 168.989 86.658C167.023 83.0457 166.029 78.6469 166.029 73.4421C166.029 68.2373 167.023 63.8385 168.989 60.2261C171.073 56.6011 173.864 53.8073 177.365 51.8344C180.867 49.8608 184.812 48.8697 189.212 48.8697C193.27 48.8697 196.99 49.8575 200.383 51.8312L200.388 51.8344C203.878 53.801 206.784 56.8682 209.098 61.0638L209.324 61.4724L209.734 61.2513L230.034 50.3261L230.421 50.1174L230.239 49.7163C226.843 42.2305 221.574 36.496 214.44 32.5247C207.312 28.4443 198.953 26.4128 189.38 26.4128C179.584 26.4128 170.84 28.4436 163.159 32.5171C155.481 36.4768 149.433 42.0252 145.025 49.159L145.024 49.1608C140.724 56.1904 138.58 64.2892 138.58 73.4421C138.58 82.4842 140.725 90.5814 145.022 97.7206ZM271.227 118.655V119.127H271.698H297.701H298.172V118.655V50.2143H328.233H328.705V49.7429V28.2288V27.7574H328.233H241.165H240.694V28.2288V49.7429V50.2143H241.165H271.227V118.655ZM355.141 114.367L355.144 114.368C363.05 118.442 372.185 120.471 382.537 120.471C390.748 120.471 398.022 119.232 404.351 116.741L404.357 116.738C410.682 114.136 415.944 110.453 420.134 105.688L420.414 105.37L420.127 105.058L406.202 89.9307L405.876 89.5757L405.528 89.9107C402.55 92.7838 399.247 94.9339 395.617 96.3666L395.612 96.3685C392.102 97.7973 387.97 98.5187 383.208 98.5187C377.898 98.5187 373.275 97.5773 369.325 95.71C365.492 93.7336 362.486 90.9396 360.297 87.3235C359.257 85.4587 358.476 83.4544 357.955 81.309H425.651H426.078L426.12 80.8844C426.232 79.7623 426.344 78.5844 426.456 77.3505L426.457 77.347C426.569 75.9934 426.626 74.8033 426.626 73.7782C426.626 63.9627 424.542 55.5281 420.353 48.4944C416.172 41.3615 410.46 35.921 403.224 32.1821C396.103 28.3327 388.085 26.4128 379.182 26.4128C369.94 26.4128 361.64 28.4458 354.294 32.5216C346.952 36.4834 341.131 42.0327 336.837 49.1636L336.836 49.1655C332.65 56.1944 330.563 64.2915 330.563 73.4421C330.563 82.4842 332.707 90.5814 337.005 97.7205L337.007 97.7234C341.305 104.749 347.354 110.296 355.141 114.367ZM400.954 65.071H357.617C358.064 62.5352 358.849 60.2479 359.967 58.2052L359.97 58.1996C361.832 54.6889 364.398 52.0111 367.671 50.1529L367.675 50.1504C371.062 48.18 374.949 47.1889 379.349 47.1889C383.75 47.1889 387.578 48.1801 390.85 50.1471L390.86 50.1529C394.137 52.0134 396.703 54.6381 398.564 58.0371C399.716 60.1427 400.515 62.4861 400.954 65.071ZM509.747 118.927L509.888 119.127H510.132H541H541.918L541.383 118.381L507.864 71.6195L539.2 28.506L539.745 27.7574H538.819H510.971H510.725L510.584 27.9595L486.272 62.8859H472.857V28.2288V27.7574H472.386H446.215H445.744V28.2288V118.655V119.127H446.215H472.386H472.857V118.655V84.8386H485.73L509.747 118.927Z" stroke="white" stroke-opacity="0.3" stroke-width="0.942808"/>
</svg>
