<svg width="183" height="57" viewBox="0 0 183 57" fill="none" xmlns="http://www.w3.org/2000/svg">
<g clip-path="url(#clip0_463_519)">
<path d="M12.7117 11.1134C12.3765 10.2759 11.7983 8.72656 11.0358 8.72656C10.2733 8.72656 9.71185 10.2927 9.35991 11.1134L0 34.4126V34.6303H22.1219L12.7117 11.1134Z" fill="url(#paint0_linear_463_519)"/>
<path d="M5.1534 0H0V8.81884L1.56697 5.09198C2.59765 2.65486 3.6786 1.02175 5.1534 0Z" fill="url(#paint1_linear_463_519)"/>
<path d="M16.8679 0C18.3762 1.02175 19.5158 2.65486 20.5549 5.09198L42.3416 57.0168H49.1542L25.1385 0H16.8679Z" fill="url(#paint2_linear_463_519)"/>
<path d="M0 42.394C0 44.3121 0.377999 46.2114 1.11241 47.9835C1.84683 49.7556 2.92328 51.3657 4.2803 52.722C7.02093 55.4611 10.738 57 14.6139 57H30.8701L24.929 42.394H0Z" fill="url(#paint3_linear_463_519)"/>
<path d="M35.7805 0L57.0309 50.4843V34.0275L42.702 0H35.7805Z" fill="url(#paint4_linear_463_519)"/>
<path d="M53.3103 0L57.0308 8.82721V3.71848C57.0308 2.73228 56.6388 1.78647 55.9411 1.08912C55.2434 0.391768 54.297 0 53.3103 0Z" fill="url(#paint5_linear_463_519)"/>
<path d="M85.7224 12.8809C83.7197 12.8809 82.865 13.5174 82.069 15.3933L73.6895 35.3844C74.9944 35.386 76.2699 34.9967 77.3513 34.2667C78.4327 33.5367 79.2704 32.4995 79.7562 31.289L80.3679 29.7648H87.0715L85.9068 26.8H81.4321L85.0856 17.7383C85.2197 17.4285 85.4375 16.8171 85.7224 16.8171C86.0073 16.8171 86.2336 17.4285 86.3593 17.7383L89.9876 26.8L93.3897 35.4095H97.814L89.4345 15.4185C88.5882 13.5174 87.633 12.8809 85.7224 12.8809Z" fill="#1B1719"/>
<path d="M103.47 29.9154C103.026 29.2119 102.414 27.8468 102.414 24.5136C102.414 21.1803 102.993 19.4886 103.655 18.5338C104.928 16.6243 107.006 16.4652 109.52 16.4652H113.123C114.012 16.4652 114.865 16.1123 115.493 15.484C116.122 14.8558 116.475 14.0037 116.475 13.1152H107.534C105.951 13.1152 102.507 13.3079 100.252 15.9125C98.3755 18.1067 98.0906 21.3813 98.0906 24.5554C98.0906 27.0009 98.2498 30.4179 100.353 32.7545C102.456 35.0911 105.314 35.3591 107.442 35.3591H116.819V32.0092H109.277C106.646 32.0427 104.61 31.6574 103.47 29.9154Z" fill="#1B1719"/>
<path d="M117.456 16.4652H126.137V35.3759C127.248 35.3759 128.314 34.9347 129.099 34.1494C129.885 33.3641 130.326 32.299 130.326 31.1884V16.4652H135.748C136.637 16.4652 137.49 16.1123 138.118 15.484C138.747 14.8558 139.1 14.0037 139.1 13.1152H117.456V16.4652Z" fill="#1B1719"/>
<path d="M145.15 31.7579C144.937 31.5318 144.822 31.2306 144.831 30.9204V25.686H154.694C155.583 25.686 156.435 25.3331 157.064 24.7048C157.693 24.0766 158.046 23.2245 158.046 22.336H144.831V17.8638C144.808 17.669 144.827 17.4713 144.888 17.2847C144.949 17.0981 145.049 16.9271 145.183 16.7834C145.514 16.5404 145.923 16.4271 146.331 16.4652H155.021C155.91 16.4652 156.762 16.1122 157.391 15.484C158.019 14.8557 158.373 14.0037 158.373 13.1152H144.127C143.648 13.0624 143.163 13.1096 142.703 13.2538C142.243 13.3979 141.818 13.6359 141.454 13.9527C140.943 14.6195 140.674 15.4407 140.692 16.2809V32.0761C140.643 32.5446 140.693 33.018 140.837 33.4664C140.981 33.9147 141.217 34.3282 141.53 34.6807C141.881 34.9586 142.285 35.1633 142.716 35.2827C143.148 35.4021 143.599 35.4338 144.044 35.3758H155.172C156.061 35.3758 156.913 35.0229 157.542 34.3947C158.17 33.7664 158.523 32.9143 158.523 32.0259H146.583C146.088 32.1043 145.582 32.0096 145.15 31.7579Z" fill="#1B1719"/>
<path d="M161.331 35.3757C162.442 35.3757 163.507 34.9346 164.293 34.1493C165.079 33.3639 165.52 32.2988 165.52 31.1883V13.1318H161.331V35.3757Z" fill="#1B1719"/>
<path d="M172.115 26.0042C171.478 25.4347 170.682 24.6725 170.682 23.969C170.682 23.4917 171.126 22.9557 171.864 22.2522L181.467 13.1318H176.28L167.85 21.4565C167.49 21.773 167.198 22.1585 166.991 22.5902C166.784 23.0218 166.665 23.4908 166.643 23.969C166.69 24.5201 166.849 25.0558 167.112 25.5427C167.374 26.0296 167.734 26.4575 168.168 26.7998L177.327 35.3422H182.673L172.115 26.0042Z" fill="#1B1719"/>
<path d="M76.4463 41.2381C76.4533 41.3959 76.4245 41.5531 76.3621 41.6981C76.2997 41.8432 76.2053 41.9722 76.086 42.0756C75.7875 42.284 75.4269 42.3844 75.0637 42.3604H74.7034V43.6669H74.1335V40.1996H75.1391C75.4869 40.175 75.8327 40.2695 76.1195 40.4676C76.2294 40.5624 76.3161 40.6812 76.3727 40.8148C76.4294 40.9484 76.4546 41.0933 76.4463 41.2381ZM74.7034 41.8746H75.005C75.2305 41.8926 75.456 41.8399 75.6502 41.7239C75.7128 41.6637 75.7626 41.5915 75.7967 41.5117C75.8307 41.4318 75.8482 41.3459 75.8482 41.2591C75.8482 41.1723 75.8307 41.0864 75.7967 41.0065C75.7626 40.9266 75.7128 40.8544 75.6502 40.7943C75.4769 40.688 75.2749 40.6383 75.072 40.6519H74.6782L74.7034 41.8746Z" fill="#1B1719"/>
<path d="M82.3622 43.6669H80.3931V40.1997H82.3622V40.6771H80.9629V41.6318H82.2785V42.1092H80.9629V43.1979H82.3622V43.6669Z" fill="#1B1719"/>
<path d="M89.049 43.6669H88.3787L86.9458 41.8747V43.6418H86.376V40.1997H86.9458V41.8747L88.3535 40.1997H88.982L87.5742 41.8747L89.049 43.6669Z" fill="#1B1719"/>
<path d="M95.3839 43.6671H94.8141V40.6689H93.8504C93.7247 41.6906 93.6242 42.3438 93.5488 42.7458C93.5093 43.0254 93.3998 43.2904 93.2304 43.5163C93.1595 43.5877 93.0743 43.6433 92.9805 43.6793C92.8866 43.7154 92.7861 43.7312 92.6857 43.7257C92.5743 43.724 92.4639 43.7042 92.3589 43.6671V43.1897C92.4398 43.2289 92.5287 43.249 92.6186 43.2483C92.6799 43.2469 92.7391 43.2258 92.7874 43.1881C92.8357 43.1503 92.8706 43.0981 92.8868 43.039C92.9925 42.7435 93.0655 42.4374 93.1047 42.1261C93.1801 41.6571 93.2723 41.0122 93.3728 40.1831H95.4174L95.3839 43.6671Z" fill="#1B1719"/>
<path d="M101.719 43.6669L101.392 42.7122H100.06L99.7244 43.6753H99.1211L100.395 40.1997H101.015L102.322 43.7004L101.719 43.6669ZM101.216 42.2097L100.889 41.2633C100.889 41.1963 100.839 41.0958 100.797 40.9618L100.705 40.6603C100.658 40.8765 100.597 41.0892 100.52 41.2968L100.202 42.2097H101.216Z" fill="#1B1719"/>
<path d="M107.543 43.6669L106.537 40.7608C106.537 41.188 106.537 41.5983 106.537 41.9752V43.6502H106.018V40.1997H106.856L107.828 42.9718L108.825 40.1997H109.663V43.6837H109.11V41.9417C109.11 41.7742 109.11 41.5481 109.11 41.2633C109.11 40.9786 109.11 40.8195 109.11 40.7608L108.062 43.6669H107.543Z" fill="#1B1719"/>
<path d="M116.55 43.6669H115.981V42.1008H114.372V43.6669H113.802V40.1997H114.372V41.6235H115.981V40.1997H116.55V43.6669Z" fill="#1B1719"/>
<path d="M123.036 42.6201C123.047 42.7672 123.022 42.9148 122.964 43.0503C122.905 43.1859 122.815 43.3054 122.701 43.3989C122.415 43.5983 122.069 43.693 121.721 43.6669H120.724V40.1997H121.293V41.6151H121.696C122.048 41.59 122.398 41.6812 122.693 41.8747C122.805 41.9631 122.894 42.0767 122.954 42.2062C123.014 42.3357 123.042 42.4776 123.036 42.6201ZM121.293 43.1896H121.687C121.886 43.2045 122.085 43.1577 122.257 43.0556C122.325 43.0066 122.38 42.9407 122.415 42.8644C122.45 42.788 122.465 42.7039 122.458 42.6201C122.465 42.5408 122.451 42.4611 122.417 42.389C122.383 42.317 122.331 42.2551 122.265 42.2097C122.073 42.1061 121.855 42.0597 121.637 42.0757H121.293V43.1896ZM124.101 43.6669H123.522V40.1997H124.101V43.6669Z" fill="#1B1719"/>
<path d="M128.273 40.1998H128.793V42.0088C128.793 42.2014 128.793 42.394 128.793 42.5867C128.793 42.7793 128.793 42.9049 128.793 42.9803L130.561 40.1998H131.223V43.6838H130.72V41.8748C130.72 41.6068 130.72 41.2718 130.762 40.8782L128.969 43.6754H128.307L128.273 40.1998ZM129.765 39.9234C129.506 39.9424 129.247 39.8778 129.028 39.7392C128.943 39.6611 128.876 39.5665 128.83 39.4614C128.784 39.3562 128.76 39.2426 128.759 39.1278H129.271C129.275 39.2207 129.298 39.3119 129.338 39.3958C129.353 39.4271 129.374 39.455 129.399 39.4781C129.425 39.5011 129.456 39.5187 129.488 39.5298C129.585 39.552 129.685 39.552 129.782 39.5298C129.907 39.5372 130.031 39.5018 130.134 39.4293C130.18 39.3849 130.218 39.3317 130.244 39.2728C130.269 39.2138 130.283 39.1503 130.285 39.0859H130.804C130.799 39.2012 130.771 39.3143 130.72 39.418C130.67 39.5218 130.599 39.614 130.511 39.6889C130.292 39.8395 130.03 39.9158 129.765 39.9067V39.9234Z" fill="#1B1719"/>
<path d="M142.452 43.6669H141.798L140.96 42.2432L140.08 43.6669H139.477L140.625 41.8747L139.535 40.1997H140.172L141.01 41.5146L141.848 40.1997H142.46L141.371 41.8747L142.452 43.6669Z" fill="#1B1719"/>
<path d="M149.306 41.9167C149.337 42.396 149.184 42.869 148.879 43.2399C148.725 43.4028 148.537 43.53 148.328 43.6125C148.12 43.695 147.896 43.7308 147.672 43.7173C147.448 43.7308 147.223 43.6959 147.013 43.615C146.804 43.534 146.614 43.409 146.457 43.2483C146.156 42.872 146.007 42.3972 146.038 41.9167C146.004 41.437 146.157 40.9627 146.465 40.5935C146.794 40.2915 147.225 40.124 147.672 40.124C148.119 40.124 148.549 40.2915 148.879 40.5935C149.183 40.9648 149.336 41.4375 149.306 41.9167ZM146.641 41.9167C146.615 42.2632 146.706 42.6086 146.901 42.8966C146.994 43.009 147.112 43.0979 147.246 43.1561C147.38 43.2143 147.526 43.2401 147.672 43.2316C147.818 43.2408 147.964 43.2153 148.098 43.157C148.232 43.0988 148.35 43.0095 148.443 42.8966C148.608 42.5978 148.694 42.2621 148.694 41.9209C148.694 41.5796 148.608 41.2439 148.443 40.9452C148.35 40.835 148.233 40.748 148.1 40.6913C147.968 40.6346 147.824 40.6097 147.68 40.6186C147.534 40.6083 147.387 40.6325 147.252 40.6893C147.116 40.746 146.996 40.8336 146.901 40.9452C146.708 41.2309 146.617 41.5729 146.641 41.9167Z" fill="#1B1719"/>
<path d="M155.926 43.6671H155.356V40.6689H154.359C154.233 41.6906 154.133 42.3438 154.057 42.7458C154.023 43.0269 153.913 43.2934 153.739 43.5163C153.668 43.5877 153.583 43.6433 153.489 43.6793C153.395 43.7154 153.294 43.7312 153.194 43.7257C153.083 43.724 152.972 43.7042 152.867 43.6671V43.1897C152.948 43.2281 153.037 43.2481 153.127 43.2483C153.188 43.2469 153.247 43.2258 153.296 43.1881C153.344 43.1503 153.379 43.0981 153.395 43.039C153.505 42.7448 153.578 42.4382 153.613 42.1261C153.688 41.6571 153.781 41.0122 153.889 40.1831H155.926V43.6671Z" fill="#1B1719"/>
<path d="M159.663 43.1813H159.94C160.178 42.7267 160.372 42.2499 160.518 41.7576C160.667 41.2434 160.768 40.7162 160.819 40.1831H162.613V43.1813H163.065V44.6302H162.562V43.6671H160.216V44.6302H159.663V43.1813ZM161.339 40.6689C161.286 41.0946 161.196 41.5149 161.071 41.9251C160.945 42.3553 160.779 42.773 160.576 43.173H162.085V40.6605L161.339 40.6689Z" fill="#1B1719"/>
<path d="M166.886 40.1997H167.406V42.0087C167.406 42.2013 167.406 42.3939 167.406 42.5866C167.406 42.7792 167.406 42.9048 167.406 42.9802L169.174 40.1997H169.836V43.6837H169.316V41.8747C169.316 41.6067 169.316 41.2717 169.358 40.8781L167.59 43.6669H166.928L166.886 40.1997Z" fill="#1B1719"/>
<path d="M176.757 43.6669H176.187V42.1008H174.579V43.6669H174.009V40.1997H174.579V41.6235H176.187V40.1997H176.757V43.6669Z" fill="#1B1719"/>
<path d="M183 40.1997V40.6855H181.5V43.6837H180.93V40.1997H183Z" fill="#1B1719"/>
</g>
<defs>
<linearGradient id="paint0_linear_463_519" x1="-4.97743" y1="41.95" x2="47.9456" y2="-8.13575" gradientUnits="userSpaceOnUse">
<stop stop-color="#5AAF46"/>
<stop offset="0.51" stop-color="#308C4A"/>
<stop offset="1" stop-color="#04684F"/>
</linearGradient>
<linearGradient id="paint1_linear_463_519" x1="-21.3761" y1="24.6224" x2="31.5469" y2="-25.4634" gradientUnits="userSpaceOnUse">
<stop stop-color="#5AAF46"/>
<stop offset="0.51" stop-color="#308C4A"/>
<stop offset="1" stop-color="#04684F"/>
</linearGradient>
<linearGradient id="paint2_linear_463_519" x1="6.25109" y1="53.8091" x2="59.1657" y2="3.72334" gradientUnits="userSpaceOnUse">
<stop stop-color="#5AAF46"/>
<stop offset="0.51" stop-color="#308C4A"/>
<stop offset="1" stop-color="#04684F"/>
</linearGradient>
<linearGradient id="paint3_linear_463_519" x1="11.8738" y1="53.0637" x2="53.4316" y2="13.7292" gradientUnits="userSpaceOnUse">
<stop stop-color="#5AAF46"/>
<stop offset="0.51" stop-color="#308C4A"/>
<stop offset="1" stop-color="#04684F"/>
</linearGradient>
<linearGradient id="paint4_linear_463_519" x1="10.9437" y1="58.7671" x2="63.8666" y2="8.68133" gradientUnits="userSpaceOnUse">
<stop stop-color="#5AAF46"/>
<stop offset="0.51" stop-color="#308C4A"/>
<stop offset="1" stop-color="#04684F"/>
</linearGradient>
<linearGradient id="paint5_linear_463_519" x1="17.1527" y1="40.3589" x2="56.6754" y2="2.95171" gradientUnits="userSpaceOnUse">
<stop stop-color="#5AAF46"/>
<stop offset="0.51" stop-color="#308C4A"/>
<stop offset="1" stop-color="#04684F"/>
</linearGradient>
<clipPath id="clip0_463_519">
<rect width="183" height="57" fill="white"/>
</clipPath>
</defs>
</svg>
